<?xml version="1.0" encoding="utf-8"?>
<!-- Generator: Adobe Illustrator 16.0.0, SVG Export Plug-In . SVG Version: 6.00 Build 0)  -->
<!DOCTYPE svg PUBLIC "-//W3C//DTD SVG 1.1//EN" "http://www.w3.org/Graphics/SVG/1.1/DTD/svg11.dtd">
<svg version="1.1" id="Capa_1" xmlns="http://www.w3.org/2000/svg" xmlns:xlink="http://www.w3.org/1999/xlink" x="0px" y="0px"
	 width="292.596px" height="292.586px" viewBox="133.566 333.845 292.596 292.586"
	 enable-background="new 133.566 333.845 292.596 292.586" xml:space="preserve">
<g>
	<path fill="#1D1D1B" d="M417.526,342.478c-11.519-11.511-30.185-11.511-41.699,0l-96.667,96.663l-95.259-95.264
		c-11.515-11.511-30.181-11.511-41.699,0c-11.515,11.519-11.515,30.185,0,41.699l95.259,95.259l-93.859,93.86
		c-11.515,11.519-11.515,30.184,0,41.698c5.759,5.756,13.303,8.634,20.852,8.634c7.544,0,15.092-2.878,20.852-8.634l93.855-93.855
		l95.259,95.26c5.759,5.755,13.304,8.633,20.852,8.633c7.544,0,15.092-2.878,20.852-8.633c11.515-11.519,11.515-30.185,0-41.699
		l-95.26-95.26l96.663-96.662C429.041,372.658,429.041,353.992,417.526,342.478z"/>
</g>
</svg>
