<?xml version="1.0" encoding="utf-8"?>
<!-- Generator: Adobe Illustrator 16.0.0, SVG Export Plug-In . SVG Version: 6.00 Build 0)  -->
<!DOCTYPE svg PUBLIC "-//W3C//DTD SVG 1.1//EN" "http://www.w3.org/Graphics/SVG/1.1/DTD/svg11.dtd">
<svg version="1.1" id="Capa_1" xmlns="http://www.w3.org/2000/svg" xmlns:xlink="http://www.w3.org/1999/xlink" x="0px" y="0px"
	 width="500px" height="500px" viewBox="0 0 500 500" enable-background="new 0 0 500 500" xml:space="preserve">
<circle id="Fondo_circular" fill="#FFFFFF" cx="250" cy="250" r="250"/>
<path id="Isotipo" fill="#262222" d="M183.387,372.279c-25.887-0.004-40.736-9.432-51.779-29.865l-31.764-58.473
	c-5.87-10.682-9.316-20.744-9.316-33.002c0-13.829,2.76-22.318,9.663-34.892l31.758-58.145
	c11.741-21.699,26.581-30.188,53.162-30.181h58.688c7.594,0,17.266,3.768,17.262,15.715c0,11.317-9.318,15.714-17.262,15.714h-57.65
	c-14.84,0-17.258,1.257-23.822,13.204l-30.032,54.696c-4.487,8.489-7.251,14.144-7.251,23.888c0,8.801,3.107,14.152,7.251,21.697
	l29.344,54.371c6.903,12.893,10.356,13.832,25.892,13.832h56.273c7.594,0,17.254,3.777,17.254,15.721
	c0.008,11.313-9.314,15.715-17.258,15.715L183.387,372.279z M242.679,372.279c-12.427,0-17.259-5.654-17.259-15.715v-228.84h115.992
	c27.271,0,54.547,17.603,54.547,45.578v21.693c0,29.545-26.928,44.632-54.547,44.632H309.65l77.679,101.218
	c3.797,4.717,8.63,10.688,8.63,16.662c0,8.803-7.939,14.771-17.607,14.771C371.445,372.279,255.109,372.279,242.679,372.279z"/>
</svg>
