<?xml version="1.0" encoding="utf-8"?>
<!-- Generator: Adobe Illustrator 16.0.0, SVG Export Plug-In . SVG Version: 6.00 Build 0)  -->
<!DOCTYPE svg PUBLIC "-//W3C//DTD SVG 1.1//EN" "http://www.w3.org/Graphics/SVG/1.1/DTD/svg11.dtd">
<svg version="1.1" id="Capa_1" xmlns="http://www.w3.org/2000/svg" xmlns:xlink="http://www.w3.org/1999/xlink" x="0px" y="0px"
	 width="677.273px" height="163.037px" viewBox="0 0 677.273 163.037" enable-background="new 0 0 677.273 163.037"
	 xml:space="preserve">
<g id="Logotipo">
	<path id="Isotipo" fill="black" d="M61.906,163.037c-17.258-0.002-27.157-6.287-34.52-19.91l-21.176-38.98
		C2.298,97.025,0,90.316,0,82.145c0-9.219,1.84-14.878,6.442-23.261L27.614,20.12C35.441,5.654,45.335-0.005,63.056,0h39.126
		c5.063,0,11.51,2.512,11.508,10.477c0,7.545-6.213,10.476-11.508,10.476H63.748c-9.894,0-11.506,0.838-15.882,8.803L27.845,66.219
		c-2.991,5.66-4.834,9.429-4.834,15.925c0,5.867,2.071,9.436,4.834,14.465l19.563,36.248c4.603,8.594,6.904,9.221,17.261,9.221
		h37.516c5.063,0,11.503,2.518,11.503,10.48c0.005,7.541-6.21,10.477-11.505,10.477L61.906,163.037z M101.435,163.037
		c-8.284,0-11.506-3.77-11.506-10.477V0.001h77.328c18.181,0,36.364,11.735,36.364,30.386v14.462
		c0,19.697-17.951,29.755-36.364,29.755h-21.175l51.786,67.479c2.531,3.145,5.753,7.125,5.753,11.107
		c0,5.869-5.293,9.848-11.738,9.848C187.279,163.037,109.722,163.037,101.435,163.037z"/>
	<g id="Nombre">
		<path fill="black" d="M259.991,104.831c-4.5,0-7.08-1.8-9-5.7l-5.52-11.159c-1.02-2.04-1.62-3.96-1.62-6.3
			c0-2.64,0.48-4.26,1.68-6.659l5.52-11.1c2.04-4.141,4.62-5.76,9.24-5.76h10.199c1.32,0,3,0.72,3,2.999c0,2.16-1.62,3-3,3h-10.02
			c-2.58,0-3,0.24-4.14,2.521l-5.22,10.439c-0.78,1.62-1.26,2.7-1.26,4.56c0,1.68,0.54,2.7,1.26,4.14l5.1,10.38
			c1.2,2.46,1.8,2.64,4.5,2.64h9.779c1.32,0,3,0.72,3,3c0,2.16-1.62,3-3,3H259.991z"/>
		<path fill="black" d="M290.23,78.252c-1.68,0-3.959-0.359-3.959-2.88c0-2.46,2.04-2.88,3.959-2.88h7.92c3,0,5.16,0.3,7.439,2.58
			c2.22,2.22,2.52,3.96,2.58,6.84l0.6,19.559c0.06,1.681-0.78,3.36-2.7,3.36c-1.5,0-3-1.26-2.94-2.88l-3.959,2.04
			c-1.62,0.84-1.68,0.84-3.54,0.84h-5.52c-2.58,0-4.44-0.3-6.54-2.04c-2.4-1.979-3-4.08-3-7.08v-2.52c0-2.76,0.66-4.5,2.82-6.42
			c1.979-1.739,4.2-2.159,6.72-2.159h12.359v-1.32c0-4.32-0.96-5.04-5.1-5.04H290.23z M290.17,90.372c-1.56,0-3.84,0.42-3.84,2.52
			v3.84c0,1.92,2.34,2.34,3.72,2.34h6.359l6.36-3.3v-1.26c0-3.18-0.9-4.14-4.08-4.14H290.17z"/>
		<path fill="black" d="M316.569,76.752c0-2.1,0.24-4.26,2.88-4.26c2.28,0,2.88,1.92,2.88,3.84v2.34l4.5-3.72
			c1.62-1.319,3.3-2.46,5.1-2.46h4.62c2.22,0,4.08,0.72,5.64,2.28c1.92,1.92,2.58,3.899,2.58,6.54c0,1.979-0.361,4.02-2.82,4.02
			c-2.1,0-2.94-1.68-2.94-3.54c0-0.96,0-1.68-0.601-2.52c-0.72-1.021-2.1-1.021-3.479-1.021h-1.68c-1.08,0-1.86,0.54-2.88,1.38
			l-8.04,6.66v14.579c0,1.98-0.42,3.96-2.88,3.96s-2.88-1.979-2.88-3.96V76.752z"/>
		<path fill="black" d="M369.667,99.071h4.32c1.92,0,3.961,0.42,3.961,2.88c0,2.52-2.281,2.88-3.961,2.88h-14.639
			c-1.68,0-3.961-0.36-3.961-2.88c0-2.46,2.041-2.88,3.961-2.88h4.559V66.373h-4.559c-1.68,0-3.961-0.36-3.961-2.88
			c0-2.46,2.041-2.88,3.961-2.88h6.059c3.301,0,4.26,0.6,4.26,4.02V99.071z"/>
		<path fill="black" d="M388.568,83.232c0-3.84,0.779-5.16,3.66-7.5c2.82-2.34,4.141-3.24,8.16-3.24h4.559
			c4.02,0,5.34,0.9,8.16,3.24c2.881,2.34,3.66,3.66,3.66,7.5v10.859c0,3.779-0.961,5.22-3.961,7.739c-2.998,2.521-4.199,3-7.859,3
			h-4.559c-3.66,0-4.861-0.479-7.859-3c-3-2.52-3.961-3.96-3.961-7.739V83.232z M394.328,94.092c0,1.199,0.42,1.979,2.1,3.42
			c1.26,1.08,2.16,1.56,3.961,1.56h4.559c1.801,0,2.701-0.479,3.961-1.56c1.68-1.44,2.1-2.221,2.1-3.42V83.232
			c0-1.2-0.42-1.98-2.1-3.42c-1.26-1.08-2.16-1.561-3.961-1.561h-4.559c-1.801,0-2.701,0.48-3.961,1.561
			c-1.68,1.439-2.1,2.22-2.1,3.42V94.092z"/>
		<path fill="black" d="M434.406,78.252c-1.199,0-3.238-0.24-3.238,1.62c0,0.96,0.719,1.32,1.559,1.68l14.4,6.54
			c3.719,1.68,5.639,4.02,5.639,8.159c0,5.82-3.959,8.58-9.479,8.58h-8.881c-2.998,0-5.039-0.12-7.199-1.8
			c-1.08-0.84-2.639-1.92-2.639-3.36c0-1.619,1.379-2.88,3-2.88c0.898,0,1.559,0.301,2.219,1.021c1.02,1.14,2.82,1.26,4.619,1.26
			h7.801c2.039,0,4.799,0.18,4.799-3.18c0-1.38-1.68-2.28-3-2.88l-13.559-6.18c-3.18-1.44-5.039-3.3-5.039-7.02
			c0-4.561,3.6-7.32,7.92-7.32h9.838c3.182,0,4.5,0.18,6.66,1.98c1.08,0.899,2.281,1.619,2.281,3.239s-1.381,2.88-2.941,2.88
			c-1.08,0-1.74-0.42-2.459-1.199c-0.961-1.021-1.98-1.141-3.541-1.141H434.406z"/>
		<path fill="black" d="M501.845,101.831c0,1.92-0.84,3-3,3s-3-1.08-3-3V58.153h20.158c4.74,0,9.48,3.359,9.48,8.699v4.14
			c0,5.64-4.68,8.52-9.48,8.52h-5.52l13.5,19.319c0.66,0.9,1.5,2.04,1.5,3.18c0,1.681-1.379,2.82-3.061,2.82
			c-1.199,0-1.979-0.72-2.639-1.68l-16.561-23.64h-1.379V101.831z M501.845,73.513h13.318c1.682,0,4.32-0.12,4.32-2.521v-4.14
			c0-2.399-2.459-2.7-4.26-2.7h-13.379V73.513z"/>
		<path fill="black" d="M543.125,104.831c-2.4,0-3.359,0-5.16-1.56l-2.459-2.16c-2.279-2.04-2.939-3.36-2.939-6.479v-11.1
			c0-3.061,0.42-4.86,2.818-6.9l2.041-1.739c2.699-2.34,4.02-2.4,6.359-2.4h5.279c2.82,0,4.141,0.3,6.359,2.1l2.34,1.86
			c2.641,2.1,3,4.32,3,7.5v4.619c0,3.3-0.539,4.261-3.959,4.261h-18.479v1.92c0,0.539,0.42,1.26,0.84,1.68l1.439,1.56
			c0.779,0.84,1.92,1.08,3.84,1.08h12.359c1.92,0,3.959,0.42,3.959,2.88c0,2.52-2.279,2.88-3.959,2.88H543.125z M538.326,87.072
			h16.678v-3.48c0-1.08,0.061-1.979-0.719-2.7l-2.221-1.92c-0.719-0.659-1.859-0.72-2.76-0.72h-4.859c-1.08,0-1.98,0-2.939,0.66
			l-1.98,1.439c-0.721,0.54-1.199,0.961-1.199,2.641V87.072z"/>
		<path fill="black" d="M591.003,79.752v-3.3c0-1.979,0.42-3.96,2.879-3.96c2.461,0,2.881,1.98,2.881,3.96v2.34
			c0,1.44-0.121,2.4-0.721,3.66l-14.52,31.618c-1.26,2.7-1.92,3-4.559,3h-4.439c-1.682,0-3.961-0.359-3.961-2.88
			c0-2.46,2.041-2.88,3.961-2.88h3.959l4.26-8.819h-0.301c-2.398,0-2.52-1.08-3.42-3.06l-7.078-15.66
			c-0.781-1.739-1.381-3.06-1.381-4.739v-2.58c0-1.979,0.42-3.96,2.881-3.96c2.459,0,2.879,1.98,2.879,3.96v3.3l7.74,16.979h1.26
			L591.003,79.752z"/>
		<path fill="black" d="M615.123,104.831c-2.4,0-3.359,0-5.16-1.56l-2.459-2.16c-2.279-2.04-2.939-3.36-2.939-6.479v-11.1
			c0-3.061,0.42-4.86,2.818-6.9l2.041-1.739c2.699-2.34,4.02-2.4,6.359-2.4h5.279c2.82,0,4.141,0.3,6.359,2.1l2.34,1.86
			c2.641,2.1,3,4.32,3,7.5v4.619c0,3.3-0.539,4.261-3.959,4.261h-18.479v1.92c0,0.539,0.42,1.26,0.84,1.68l1.439,1.56
			c0.779,0.84,1.92,1.08,3.84,1.08h12.359c1.92,0,3.959,0.42,3.959,2.88c0,2.52-2.279,2.88-3.959,2.88H615.123z M610.324,87.072
			h16.678v-3.48c0-1.08,0.061-1.979-0.719-2.7l-2.221-1.92c-0.719-0.659-1.859-0.72-2.76-0.72h-4.859c-1.08,0-1.98,0-2.939,0.66
			l-1.98,1.439c-0.721,0.54-1.199,0.961-1.199,2.641V87.072z"/>
		<path fill="black" d="M650.402,78.252c-1.199,0-3.24-0.24-3.24,1.62c0,0.96,0.721,1.32,1.561,1.68l14.398,6.54
			c3.721,1.68,5.641,4.02,5.641,8.159c0,5.82-3.961,8.58-9.48,8.58h-8.879c-3,0-5.039-0.12-7.199-1.8
			c-1.08-0.84-2.641-1.92-2.641-3.36c0-1.619,1.381-2.88,3-2.88c0.9,0,1.561,0.301,2.221,1.021c1.02,1.14,2.818,1.26,4.619,1.26
			h7.799c2.041,0,4.801,0.18,4.801-3.18c0-1.38-1.68-2.28-3-2.88l-13.559-6.18c-3.182-1.44-5.041-3.3-5.041-7.02
			c0-4.561,3.6-7.32,7.92-7.32h9.84c3.18,0,4.5,0.18,6.66,1.98c1.08,0.899,2.279,1.619,2.279,3.239s-1.381,2.88-2.939,2.88
			c-1.08,0-1.74-0.42-2.461-1.199c-0.959-1.021-1.979-1.141-3.539-1.141H650.402z"/>
	</g>
</g>
</svg>
